<?xml version="1.0" standalone="no"?>
<!DOCTYPE svg PUBLIC "-//W3C//DTD SVG 20010904//EN"
 "http://www.w3.org/TR/2001/REC-SVG-20010904/DTD/svg10.dtd">
<svg version="1.0" xmlns="http://www.w3.org/2000/svg"
 width="101.000000pt" height="101.000000pt" viewBox="0 0 101.000000 101.000000"
 preserveAspectRatio="xMidYMid meet">
<metadata>
Created by potrace 1.11, written by Peter Selinger 2001-2013
</metadata>
<g transform="translate(0.000000,101.000000) scale(0.100000,-0.100000)"
fill="#000000" stroke="none">
<path d="M254 978 c-188 -145 -180 -437 17 -570 30 -20 72 -42 94 -48 40 -11
95 -20 95 -15 0 2 -16 12 -35 24 -19 11 -44 35 -55 53 -19 30 -20 42 -14 128
5 52 8 109 7 125 -1 78 -3 87 -20 83 -16 -3 -21 -14 -42 -88 -3 -14 -14 -26
-23 -28 -25 -5 -49 41 -55 105 -5 53 -2 65 36 138 56 109 55 139 -5 93z"/>
<path d="M654 987 c-3 -8 14 -49 38 -92 34 -64 42 -89 42 -130 0 -64 -26 -125
-53 -125 -19 0 -27 14 -36 60 -9 45 -17 60 -33 60 -23 0 -28 -86 -11 -197 15
-104 2 -142 -68 -190 -51 -36 -45 -40 32 -19 79 21 128 50 182 110 129 140
119 365 -22 495 -47 43 -62 49 -71 28z"/>
<path d="M364 973 c-66 -13 -69 -98 -7 -181 37 -48 44 -54 96 -84 29 -16 32
-16 60 0 16 9 49 41 73 70 70 86 79 158 23 187 -39 21 -60 19 -98 -9 l-33 -24
-35 24 c-36 24 -40 25 -79 17z"/>
<path d="M413 613 c-25 -10 -14 -60 21 -97 18 -20 38 -36 44 -36 19 0 83 81
80 102 -5 31 -33 46 -58 30 -15 -9 -26 -10 -40 -2 -20 11 -28 11 -47 3z"/>
<path d="M79 255 c0 -3 -1 -25 -1 -50 0 -71 1 -77 15 -73 6 3 13 10 13 16 1 7
2 17 3 22 0 6 6 10 11 10 5 0 9 -3 9 -7 -4 -28 3 -52 14 -48 17 7 18 135 0
135 -6 0 -13 -10 -15 -22 -2 -12 -9 -23 -17 -26 -8 -3 -11 0 -7 6 7 13 -3 42
-15 42 -5 0 -9 -2 -10 -5z"/>
<path d="M460 246 c0 -8 6 -16 13 -18 7 -3 13 -23 13 -46 2 -58 2 -59 19 -59
11 0 15 13 15 54 0 29 4 53 9 53 5 0 11 7 15 15 4 12 -4 15 -39 15 -32 0 -45
-4 -45 -14z m63 -3 c-8 -3 -13 -24 -13 -54 0 -27 -4 -49 -8 -49 -5 0 -8 18 -7
41 1 24 -4 46 -12 55 -12 12 -10 14 19 13 18 0 27 -3 21 -6z"/>
<path d="M667 247 c-21 -15 -29 -77 -13 -98 14 -20 44 -31 51 -19 3 5 -3 18
-15 30 -11 11 -20 24 -20 29 0 21 13 41 26 41 8 0 14 7 14 15 0 18 -20 19 -43
2z"/>
<path d="M390 229 c0 -7 -12 -10 -30 -7 -26 4 -29 1 -32 -26 l-4 -31 -12 28
c-8 19 -19 27 -37 27 -14 0 -25 -4 -25 -10 0 -5 10 -10 23 -10 l22 0 -24 -13
c-13 -6 -23 -15 -22 -19 0 -5 1 -14 1 -22 0 -18 47 -27 60 -11 5 6 7 15 3 18
-3 4 -2 7 4 7 6 0 14 -10 17 -22 6 -22 7 -22 17 -5 6 10 8 21 5 24 -7 7 12 43
24 43 5 0 10 -15 12 -32 2 -27 8 -34 28 -36 20 -3 23 -1 13 9 -16 16 -17 55
-3 64 6 4 5 12 -4 21 -17 17 -36 18 -36 3z m-100 -69 c0 -5 -4 -10 -10 -10 -5
0 -10 5 -10 10 0 6 5 10 10 10 6 0 10 -4 10 -10z"/>
<path d="M546 214 c-9 -8 -16 -26 -16 -39 0 -23 23 -55 40 -55 16 0 40 31 40
51 0 28 -18 59 -35 59 -7 0 -21 -7 -29 -16z m42 -6 c17 -17 15 -53 -4 -69 -14
-11 -18 -10 -30 6 -17 23 -18 47 -2 63 15 15 21 15 36 0z"/>
<path d="M563 198 c-13 -21 -12 -36 3 -49 8 -6 14 -10 15 -8 11 42 -1 83 -18
57z"/>
<path d="M176 204 c-17 -45 7 -89 42 -77 17 6 15 23 -3 23 -8 0 -15 4 -15 10
0 5 6 7 14 4 18 -7 29 11 21 36 -8 24 -50 27 -59 4z"/>
<path d="M725 210 c3 -5 14 -10 23 -11 12 0 11 -3 -5 -9 -16 -6 -23 -18 -23
-35 0 -20 5 -25 25 -25 37 0 40 2 41 35 1 46 -6 55 -38 55 -17 0 -27 -4 -23
-10z m35 -50 c0 -5 -5 -10 -11 -10 -5 0 -7 5 -4 10 3 6 8 10 11 10 2 0 4 -4 4
-10z"/>
<path d="M800 175 c0 -33 4 -45 15 -45 10 0 15 10 15 30 0 17 5 30 10 30 6 0
10 7 10 15 0 9 -9 15 -25 15 -23 0 -25 -4 -25 -45z"/>
<path d="M860 201 c-6 -11 -8 -32 -4 -46 5 -19 13 -25 35 -25 16 0 29 5 29 10
0 6 -10 10 -22 10 -12 0 -18 3 -14 8 4 4 13 7 19 7 7 0 12 11 12 25 0 33 -39
41 -55 11z"/>
<path d="M104 93 c-17 -18 -18 -65 -2 -81 15 -15 48 -16 48 -2 0 6 -6 10 -14
10 -16 0 -28 24 -20 43 2 7 13 18 23 24 17 11 19 9 16 -25 -4 -64 20 -90 28
-29 l4 32 1 -32 c3 -47 22 -41 22 7 0 29 -4 40 -15 40 -8 0 -15 6 -15 14 0 19
-57 18 -76 -1z"/>
<path d="M229 88 c-1 -13 -3 -38 -5 -56 -3 -24 0 -32 11 -32 12 0 15 12 14 55
-2 53 -18 79 -20 33z"/>
<path d="M260 55 c0 -52 11 -71 24 -42 5 9 7 9 12 0 3 -7 17 -13 30 -13 22 0
24 4 24 55 0 30 -4 55 -10 55 -5 0 -10 -7 -10 -15 0 -8 -6 -15 -14 -15 -8 0
-19 -12 -25 -27 l-10 -28 0 30 c2 46 0 55 -11 55 -5 0 -10 -25 -10 -55z m70
-16 c0 -11 -4 -18 -10 -14 -5 3 -7 12 -3 20 7 21 13 19 13 -6z"/>
<path d="M538 92 c-4 -15 -12 -18 -37 -14 -30 4 -31 4 -31 -37 0 -48 20 -56
21 -8 0 26 2 28 8 12 5 -11 6 -26 4 -32 -3 -7 2 -13 11 -13 9 0 15 3 15 8 -4
23 2 62 9 62 5 0 14 -11 20 -25 7 -15 8 -25 2 -25 -6 0 -10 -4 -10 -10 0 -5 9
-10 19 -10 22 0 36 29 22 43 -5 5 -7 16 -4 25 5 12 1 14 -16 9 -18 -4 -21 -2
-16 14 4 10 2 19 -3 19 -5 0 -12 -8 -14 -18z"/>
<path d="M631 55 c-1 -44 2 -55 14 -55 9 0 14 3 12 8 -3 4 -1 16 4 27 6 17 8
16 8 -8 1 -18 6 -27 14 -24 7 2 12 23 12 55 0 31 -4 51 -10 49 -5 -2 -10 -9
-10 -15 0 -7 -4 -12 -10 -12 -5 0 -10 5 -10 12 0 6 -5 13 -11 15 -7 2 -12 -17
-13 -52z"/>
<path d="M360 40 c0 -30 4 -40 16 -40 11 0 14 6 9 21 -4 13 0 27 11 40 16 18
16 19 -9 19 -25 0 -27 -3 -27 -40z"/>
<path d="M410 65 c-18 -21 2 -65 30 -65 11 0 20 5 20 10 0 6 -8 10 -17 10 -15
0 -15 1 2 14 11 8 16 19 12 30 -8 20 -31 21 -47 1z"/>
<path d="M711 58 c-10 -26 3 -58 23 -58 18 0 35 22 33 40 -7 43 -42 54 -56 18z
m26 -30 c-3 -7 -5 -2 -5 12 0 14 2 19 5 13 2 -7 2 -19 0 -25z"/>
<path d="M778 73 c-8 -15 -2 -67 8 -70 5 -2 11 9 12 24 3 38 12 42 12 5 0 -18
5 -32 10 -32 6 0 10 13 10 30 0 17 4 30 9 30 4 0 7 -13 5 -30 -3 -21 1 -30 11
-30 8 0 15 8 15 18 1 16 1 16 11 0 5 -10 19 -18 29 -18 25 0 26 17 3 23 -17 4
-17 5 0 6 13 1 17 8 15 23 -4 30 -38 37 -45 9 -6 -25 -21 -28 -19 -3 1 13 -8
18 -41 20 -22 2 -43 -1 -45 -5z"/>
</g>
</svg>
